<?xml version="1.0" encoding="UTF-8"?><svg id="Layer_2" xmlns="http://www.w3.org/2000/svg" viewBox="0 0 16.5 16.5"><defs><style>.cls-1{fill:#3597d3;}.cls-2{fill:none;stroke:#3597d3;stroke-miterlimit:10;stroke-width:.75px;}</style></defs><path class="cls-1" d="M12.81,9.74c-1.57,0-2.86,1.19-3.04,2.71h1.06c.17-.91.97-1.6,1.93-1.6.11,0,.22.01.33.03v.71h1.39c.15,0,.26.12.26.26s-.12.26-.26.26h-1.39v1.39h1.39c.15,0,.26.12.26.26s-.12.26-.26.26h-1.39v.71c-.11.02-.22.03-.33.03-.96,0-1.76-.69-1.93-1.6h-1.06c.18,1.52,1.47,2.71,3.04,2.71,1.7,0,3.08-1.38,3.08-3.08s-1.38-3.08-3.08-3.08Z"/><rect class="cls-2" x="1" y="1" width="14.5" height="14.5" rx="1.88" ry="1.88"/><path class="cls-1" d="M3.64,9.04l2.27-6.59h1.56l2.27,6.59h-1.31l-.47-1.41h-2.55l-.48,1.41h-1.3ZM5.76,6.56h1.85l-1.09-3.27h.34l-1.1,3.27Z"/><path class="cls-1" d="M10.82,9.04V2.45h1.21v6.59h-1.21Z"/></svg>