<?xml version="1.0" encoding="UTF-8"?><svg id="Layer_2" xmlns="http://www.w3.org/2000/svg" viewBox="0 0 16.5 16.5"><defs><style>.cls-1,.cls-2{fill:#3597d3;}.cls-1,.cls-3{stroke:#3597d3;stroke-miterlimit:10;}.cls-3{fill:none;stroke-width:.75px;}</style></defs><rect class="cls-3" x="1" y="1" width="14.5" height="14.5" rx="1.88" ry="1.88"/><path class="cls-1" d="M5.4,15.5h-.79c-.6,0-1.09-.49-1.09-1.09h0c0-.76-.62-1.37-1.37-1.37h-.05c-.6,0-1.09-.49-1.09-1.09v-.49,2.13c0,1.06.86,1.92,1.92,1.92h2.48Z"/><path class="cls-2" d="M8.71,5.16c.16-.48.1-1.01-.15-1.44-.38-.67-1.16-1.01-1.91-.85-.66-.73-1.79-.79-2.52-.13-.23.21-.41.48-.5.77-.5.1-.92.41-1.17.85-.39.67-.3,1.51.22,2.09-.16.48-.11,1.01.15,1.44.39.67,1.16,1.01,1.91.85.34.38.82.59,1.32.59.77,0,1.46-.5,1.7-1.24.5-.1.92-.41,1.17-.85.38-.67.3-1.51-.22-2.08h0ZM6.06,8.86c-.31,0-.61-.11-.85-.31l.04-.02,1.4-.81c.07-.04.11-.12.12-.2v-1.98l.59.34s.01,0,.01.02v1.64c0,.73-.59,1.32-1.32,1.32ZM3.22,7.65c-.15-.27-.21-.58-.16-.89l.04.03,1.41.81c.07.04.16.04.23,0l1.72-.99v.69s0,.01,0,.02l-1.42.82c-.63.36-1.44.15-1.8-.48h0ZM2.85,4.59c.16-.27.4-.47.7-.58v1.67c0,.08.04.16.11.2l1.71.99-.59.34s-.01,0-.02,0l-1.42-.82c-.63-.37-.85-1.17-.48-1.8h0ZM7.72,5.73l-1.71-1,.59-.34s.01,0,.02,0l1.42.82c.63.36.85,1.17.48,1.8-.15.27-.39.47-.68.58v-1.67c0-.08-.05-.16-.12-.2h0ZM8.32,4.84l-.04-.03-1.4-.82c-.07-.04-.16-.04-.23,0l-1.72.99v-.69s0-.01,0-.02l1.42-.82c.63-.36,1.44-.15,1.81.49.15.27.21.58.16.88h0ZM4.6,6.05l-.59-.34s-.01,0-.01-.02v-1.64c0-.73.59-1.32,1.32-1.32.31,0,.61.11.84.31l-.04.02-1.4.81c-.07.04-.11.12-.12.2v1.98ZM4.92,5.36l.76-.44.77.44v.88l-.76.44-.77-.44v-.88Z"/><path class="cls-2" d="M13.87,14.23c.23,0,.42-.19.42-.42,0-.05,0-.09-.02-.14h0s-1.71-5.07-1.71-5.07c-.06-.17-.22-.29-.4-.29h-1.99c-.18,0-.34.12-.4.29l-1.71,5.07c-.07.22.04.46.26.54.04.01.09.02.14.02h1.24c.18,0,.34-.12.4-.29l.25-.75,1.29.96c.07.05.16.08.25.08M11.09,10.96l.95,2.8c.02.07-.01.15-.09.18-.01,0-.03,0-.04,0h0s0,0,0,0c-.03,0-.06,0-.08-.03l-2.42-1.8h1.27M12.3,13.95c.03-.09.03-.18,0-.28l-1.71-5.07s0,0,0,0h1.57c.06,0,.11.04.13.1l1.71,5.07c.02.07-.01.15-.09.18"/></svg>