<?xml version="1.0" encoding="UTF-8"?><svg id="Layer_2" xmlns="http://www.w3.org/2000/svg" viewBox="0 0 16.5 16.5"><defs><style>.cls-1,.cls-2{fill:#3597d3;}.cls-1,.cls-3{stroke:#3597d3;stroke-miterlimit:10;}.cls-3{fill:none;stroke-width:.75px;}</style></defs><rect class="cls-3" x="1" y="1" width="14.5" height="14.5" rx="1.88" ry="1.88"/><path class="cls-1" d="M5.4,15.5h-.79c-.6,0-1.09-.49-1.09-1.09h0c0-.76-.62-1.37-1.37-1.37h-.05c-.6,0-1.09-.49-1.09-1.09v-.49,2.13c0,1.06.86,1.92,1.92,1.92h2.48Z"/><path class="cls-2" d="M6.7,11.63v-3.38c0-1.25.71-2.34,1.76-2.92-.52-.29-1.12-.46-1.76-.46-1.94,0-3.52,1.51-3.52,3.38s1.58,3.38,3.52,3.38h0Z"/><path class="cls-2" d="M9.8,4.87v3.38c0,.35-.06.69-.16,1-.07.21-.16.41-.27.61s-.24.37-.38.54c-.07.08-.15.16-.23.24-.22.21-.46.39-.73.53.52.29,1.12.46,1.76.46,1.94,0,3.52-1.51,3.52-3.38s-1.58-3.38-3.52-3.38Z"/></svg>