<?xml version="1.0" encoding="UTF-8"?><svg id="Layer_2" xmlns="http://www.w3.org/2000/svg" viewBox="0 0 16.5 16.5"><defs><style>.cls-1,.cls-2{fill:#3597d3;}.cls-1,.cls-3{stroke:#3597d3;stroke-miterlimit:10;}.cls-3{fill:none;stroke-width:.75px;}</style></defs><rect class="cls-3" x="1" y="1" width="14.5" height="14.5" rx="1.88" ry="1.88"/><path class="cls-1" d="M5.4,15.5h-.79c-.6,0-1.09-.49-1.09-1.09h0c0-.76-.62-1.37-1.37-1.37h-.05c-.6,0-1.09-.49-1.09-1.09v-.49,2.13c0,1.06.86,1.92,1.92,1.92h2.48Z"/><path class="cls-2" d="M13.9,4.71c-.12-.06-.17.05-.25.11-.02.02-.05.04-.07.07-.18.19-.39.32-.66.3-.4-.02-.74.1-1.04.41-.06-.38-.28-.6-.6-.75-.17-.07-.34-.15-.46-.31-.08-.12-.11-.25-.15-.37-.03-.08-.05-.16-.14-.17-.1-.01-.13.07-.17.13-.15.28-.21.58-.2.89.01.69.3,1.24.88,1.63.07.04.08.09.06.16-.04.13-.09.27-.13.4-.03.09-.07.1-.16.07-.32-.13-.59-.33-.84-.57-.41-.4-.78-.84-1.25-1.18-.11-.08-.22-.16-.33-.23-.47-.46.06-.84.19-.88.13-.05.05-.21-.37-.21-.42,0-.8.14-1.29.33-.07.03-.15.05-.22.07-.44-.08-.91-.1-1.39-.05-.91.1-1.63.53-2.16,1.26-.64.88-.79,1.88-.61,2.92.19,1.1.75,2.01,1.62,2.72.89.74,1.92,1.1,3.1,1.03.71-.04,1.51-.14,2.4-.89.23.11.46.16.86.19.3.03.59-.01.82-.06.35-.07.33-.4.2-.46-1.04-.48-.81-.29-1.02-.45.53-.62,1.32-1.27,1.63-3.37.02-.17,0-.27,0-.41,0-.08.02-.11.11-.12.26-.03.51-.1.74-.23.67-.37.94-.97,1.01-1.69,0-.11,0-.22-.12-.28ZM8.05,11.22c-1-.79-1.49-1.05-1.69-1.04-.19.01-.15.23-.11.37.04.14.1.23.18.36.05.08.09.2-.05.29-.32.2-.89-.07-.91-.08-.65-.39-1.2-.89-1.59-1.59-.37-.67-.59-1.39-.62-2.16,0-.19.05-.25.23-.28.24-.04.49-.05.74-.02,1.03.15,1.9.61,2.63,1.33.42.41.73.91,1.06,1.39.35.51.72,1,1.19,1.4.17.14.3.25.43.33-.39.04-1.03.05-1.47-.3h0ZM8.53,8.12c0-.08.07-.15.15-.15.02,0,.04,0,.05,0,.02,0,.04.02.05.04.03.03.04.06.04.1,0,.08-.07.15-.15.15s-.15-.07-.15-.15h0ZM10.03,8.89c-.1.04-.19.07-.28.08-.14,0-.3-.05-.38-.12-.13-.11-.23-.17-.27-.37-.02-.08,0-.21,0-.28.03-.16,0-.26-.11-.35-.09-.07-.21-.1-.33-.1-.05,0-.09-.02-.12-.04-.05-.03-.1-.09-.05-.17.01-.03.08-.09.09-.1.17-.1.37-.07.55,0,.17.07.3.2.48.38.19.22.22.28.33.44.08.13.16.26.21.41.03.09,0,.17-.12.22h0Z"/></svg>