<?xml version="1.0" encoding="UTF-8"?><svg id="Layer_2" xmlns="http://www.w3.org/2000/svg" viewBox="0 0 16.5 16.5"><defs><style>.cls-1{fill:#3597d3;}.cls-1,.cls-2{stroke:#3597d3;stroke-miterlimit:10;}.cls-2{fill:none;stroke-width:.75px;}</style></defs><rect class="cls-2" x="1" y="1" width="14.5" height="14.5" rx="1.88" ry="1.88"/><path class="cls-1" d="M5.4,15.5h-.79c-.6,0-1.09-.49-1.09-1.09h0c0-.76-.62-1.37-1.37-1.37h-.05c-.6,0-1.09-.49-1.09-1.09v-.49,2.13c0,1.06.86,1.92,1.92,1.92h2.48Z"/><line class="cls-2" x1="5.35" y1="6.6" x2="3.42" y2="6.6"/><line class="cls-2" x1="5.35" y1="8.25" x2="3.42" y2="8.25"/><line class="cls-2" x1="5.35" y1="9.9" x2="3.42" y2="9.9"/><line class="cls-2" x1="13.08" y1="6.6" x2="11.15" y2="6.6"/><line class="cls-2" x1="13.08" y1="8.25" x2="11.15" y2="8.25"/><line class="cls-2" x1="13.08" y1="9.9" x2="11.15" y2="9.9"/><line class="cls-2" x1="6.6" y1="11.15" x2="6.6" y2="13.08"/><line class="cls-2" x1="8.25" y1="11.15" x2="8.25" y2="13.08"/><line class="cls-2" x1="9.9" y1="11.15" x2="9.9" y2="13.08"/><line class="cls-2" x1="6.6" y1="3.42" x2="6.6" y2="5.35"/><line class="cls-2" x1="8.25" y1="3.42" x2="8.25" y2="5.35"/><line class="cls-2" x1="9.9" y1="3.42" x2="9.9" y2="5.35"/><rect class="cls-2" x="5.67" y="5.67" width="5.17" height="5.17"/></svg>