<?xml version="1.0" encoding="UTF-8"?>
<svg id="Layer_2" data-name="Layer 2" xmlns="http://www.w3.org/2000/svg" viewBox="0 0 16.5 16.5">
  <g>
    <rect x="1" y="1" width="14.5" height="14.5" rx="1.88" ry="1.88" fill="none" stroke="#3597d3" stroke-miterlimit="10" stroke-width=".75"/>
    <path d="M5.4,15.5h-.79c-.6,0-1.09-.49-1.09-1.09h0c0-.76-.62-1.37-1.37-1.37h-.05c-.6,0-1.09-.49-1.09-1.09v-.49,2.13c0,1.06.86,1.92,1.92,1.92h2.48Z" fill="#3597d3"/>
  </g>
  <g id="sPb0Wz">
    <g>
      <path d="M7.83,4.15c2.27-.14,4.38,1.51,4.5,3.83.21,3.82-4.33,5.79-7.12,3.22-.94-.86-1.81-1.84-2.74-2.71-.12-.15-.12-.33,0-.49.83-.81,1.63-1.64,2.47-2.44s1.68-1.35,2.9-1.42ZM8.17,5.23c-1.45.07-2.05.89-2.99,1.81-.31.31-.72.64-1,.97s.04.49.25.71c.55.55,1.11,1.14,1.68,1.66,1.14,1.04,2.74,1.21,4.01.29,2.44-1.78,1.02-5.58-1.95-5.44Z" fill="#3597d3"/>
      <path d="M13.35,6.76s.03,0,.04,0l1.24,1.23c.15.2.12.41-.05.59-.25.27-.53.51-.79.77-.09.09-.17.2-.27.29-.04.03-.13.11-.16.11-.06,0-.11-.05-.11-.11,0-.11.08-.37.1-.51.09-.6.07-1.26-.02-1.86-.01-.1-.08-.33-.08-.41,0-.04.05-.1.09-.1Z" fill="#3597d3"/>
      <path d="M8.15,6.19c1.62-.12,2.73,1.59,1.98,3.03s-2.86,1.45-3.64.02c-.71-1.32.17-2.94,1.66-3.05Z" fill="#3597d3"/>
    </g>
  </g>
</svg>