<?xml version="1.0" encoding="UTF-8"?><svg id="Layer_2" xmlns="http://www.w3.org/2000/svg" viewBox="0 0 16.5 16.5"><defs><style>.cls-1,.cls-2{fill:#3597d3;}.cls-1,.cls-3{stroke:#3597d3;stroke-miterlimit:10;}.cls-3{fill:none;stroke-width:.75px;}</style></defs><rect class="cls-3" x="1" y="1" width="14.5" height="14.5" rx="1.88" ry="1.88"/><rect class="cls-2" x="3.95" y="4.01" width="1.72" height="1.72"/><rect class="cls-2" x="3.95" y="5.73" width="1.72" height="1.72"/><rect class="cls-2" x="3.95" y="7.45" width="1.72" height="1.72"/><rect class="cls-2" x="5.67" y="5.73" width="1.72" height="1.72"/><rect class="cls-2" x="5.67" y="7.45" width="1.72" height="1.72"/><rect class="cls-2" x="7.39" y="7.45" width="1.72" height="1.72"/><rect class="cls-2" x="7.39" y="9.17" width="1.72" height="1.72"/><rect class="cls-2" x="9.11" y="5.73" width="1.72" height="1.72"/><rect class="cls-2" x="9.11" y="7.45" width="1.72" height="1.72"/><rect class="cls-2" x="10.83" y="5.73" width="1.72" height="1.72"/><rect class="cls-2" x="10.83" y="4.01" width="1.72" height="1.72"/><rect class="cls-2" x="10.83" y="7.45" width="1.72" height="1.72"/><rect class="cls-2" x="10.83" y="9.17" width="1.72" height="1.72"/><rect class="cls-2" x="10.83" y="10.89" width="1.72" height="1.72"/><rect class="cls-2" x="3.95" y="9.17" width="1.72" height="1.72"/><rect class="cls-2" x="3.95" y="10.89" width="1.72" height="1.72"/><path class="cls-1" d="M5.4,15.5h-.79c-.6,0-1.09-.49-1.09-1.09h0c0-.76-.62-1.37-1.37-1.37h-.05c-.6,0-1.09-.49-1.09-1.09v-.49,2.13c0,1.06.86,1.92,1.92,1.92h2.48Z"/></svg>