<?xml version="1.0" encoding="UTF-8"?><svg id="Layer_2" xmlns="http://www.w3.org/2000/svg" viewBox="0 0 16.5 16.5"><defs><style>.cls-1,.cls-2{fill:#3597d3;}.cls-1,.cls-3{stroke:#3597d3;stroke-miterlimit:10;}.cls-3{fill:none;stroke-width:.75px;}</style></defs><rect class="cls-3" x="1" y="1" width="14.5" height="14.5" rx="1.88" ry="1.88"/><path class="cls-1" d="M5.4,15.5h-.79c-.6,0-1.09-.49-1.09-1.09h0c0-.76-.62-1.37-1.37-1.37h-.05c-.6,0-1.09-.49-1.09-1.09v-.49,2.13c0,1.06.86,1.92,1.92,1.92h2.48Z"/><path class="cls-2" d="M12.87,9.2c-.06-.17-.2-.29-.39-.32-.09-.01-.19,0-.31.02-.21.04-.37.06-.48.06.43-.73.78-1.56.98-2.34.33-1.26.15-1.84-.05-2.1-.54-.69-1.32-1.06-2.27-1.07-.51,0-.95.09-1.18.17-.22-.04-.45-.06-.69-.06-.46,0-.86.09-1.2.3-.19-.06-.5-.16-.85-.21-.83-.14-1.5-.03-1.99.32-.59.42-.87,1.15-.82,2.16.02.32.2,1.3.48,2.24.16.54.34.98.52,1.32.26.48.53.77.84.87.17.06.48.1.81-.18.04.05.1.1.17.15.09.06.21.11.32.14.41.1.8.08,1.13-.07,0,.06,0,.11,0,.16,0,.08,0,.16,0,.23.02.49.05.86.15,1.13,0,.01.01.04.02.06.05.15.13.4.34.6.22.2.48.27.71.27.12,0,.23-.02.33-.04.36-.08.76-.19,1.06-.61.28-.39.41-.99.44-1.93,0-.03,0-.05,0-.08,0-.02,0-.03,0-.05h.07s.02,0,.02,0c.36.02.81-.06,1.08-.19.22-.1.91-.47.74-.96ZM12,9.9c-.22.1-.56.16-.86.16-.14,0-.28-.01-.38-.05-.05.45-.15,1.29-.21,1.64-.11.66-.41.95-1.08,1.1-.11.02-.22.04-.31.04-.65,0-.85-.51-.93-.72-.1-.26-.14-1.09-.13-1.94-.23.21-.52.32-.86.32-.14,0-.28-.02-.43-.06-.04-.01-.42-.11-.41-.35,0-.22.32-.28.43-.31.41-.08.44-.12.57-.28.03-.03.06-.07.09-.12,0,0,0,0,0-.01-.18,0-.37-.05-.53-.14-.11.12-.41.44-.74.83-.19.23-.38.3-.53.3-.06,0-.12-.01-.17-.03-.42-.14-.82-.82-1.18-2.02-.28-.91-.45-1.86-.47-2.17-.05-.92.19-1.57.7-1.93.43-.3,1.03-.4,1.79-.28.44.07.8.19.94.25.32-.22.71-.33,1.15-.32.24,0,.47.04.67.09.1-.04.6-.2,1.2-.19.87,0,1.58.34,2.07.97.12.15.18.41.17.75,0,.31-.06.7-.17,1.11-.23.87-.64,1.81-1.15,2.59.08.06.31.15.97.02.22-.05.35,0,.39.12.08.24-.36.52-.6.63Z"/><path class="cls-2" d="M6.28,7.77c.07-.47.04-.88.03-1.1,0-.06,0-.1,0-.14,0-.08-.02-1.4.74-2.17,0,0,.01-.01.02-.02-.47-.15-1.63-.45-2.33.05-.43.31-.63.88-.59,1.7.01.26.18,1.19.46,2.11.32,1.06.69,1.74,1.01,1.84.05.02.2.07.41-.19.3-.36.59-.68.72-.82-.03-.03-.06-.06-.1-.09-.29-.31-.43-.73-.37-1.17Z"/><path class="cls-2" d="M7.76,8.42c.15-.34.35-.77.12-1.79-.04-.2-.15-.31-.31-.35-.37-.08-.89.19-1,.29,0,.02,0,.05,0,.08.01.23.04.66-.03,1.16-.05.35.06.7.3.95.19.19.43.3.68.3.03-.12.08-.24.13-.38l.02-.05c.03-.07.06-.14.09-.21ZM7.52,6.73s-.02,0-.03,0c-.07,0-.14-.05-.19-.12-.02-.02-.05-.07-.04-.11,0-.02,0-.04.03-.06.04-.03.13-.05.23-.03.12.02.24.07.23.16,0,.07-.12.16-.23.16Z"/><path class="cls-2" d="M7.95,9.4c-.07-.03-.11-.05-.2.05h0c-.06.07-.1.12-.14.17-.16.21-.24.28-.72.38-.1.02-.16.04-.19.06.04.03.11.06.18.08.36.09.86.1,1.2-.38.04-.06.03-.13.02-.17-.02-.08-.08-.16-.14-.18Z"/><path class="cls-2" d="M11,6.23c-.53-.07-.74.06-.82.18-.28.4.27,1.38.5,1.79.06.11.1.18.12.23.02.05.05.1.07.15.16-.34.12-.69.08-1.02-.02-.17-.04-.34-.04-.5,0-.17.03-.31.05-.44.02-.13.04-.25.04-.38ZM10.7,6.53s-.08.07-.15.08c0,0-.02,0-.03,0-.11,0-.2-.09-.21-.14,0-.07.1-.12.21-.13.11-.02.23,0,.24.07,0,.03-.02.08-.06.12Z"/><path class="cls-2" d="M10.62,4.84c.43.5.64,1.05.65,1.23,0,.03,0,.05,0,.07,0,.19-.02.35-.04.51-.02.13-.04.26-.04.41,0,.14.01.3.03.46.05.4.1.85-.17,1.3,0,0,0,.01.01.02.01.01.02.03.03.04,1.06-1.67,1.43-3.61,1.1-4.04-.43-.56-1.05-.85-1.82-.86-.31,0-.58.03-.78.07.47.21.81.51,1.04.78Z"/><path class="cls-2" d="M11.11,9.37s-.03-.02-.04-.03c-.02,0-.04.01-.06.02-.12.03-.24.07-.23.38.03.03.17.07.44.06.25-.01.51-.07.66-.14.18-.08.31-.18.38-.25,0,0,0,0,0,0-.55.11-.94.1-1.16-.05Z"/><path class="cls-2" d="M10.85,9.01c-.09-.11-.2-.25-.29-.47-.01-.03-.06-.11-.11-.2-.28-.5-.86-1.54-.48-2.08.17-.25.51-.35,1.01-.29-.07-.2-.23-.56-.54-.93-.36-.42-.99-.93-1.98-.94-.5,0-.91.15-1.22.46-.49.49-.62,1.28-.66,1.69.02-.01.05-.03.07-.04.12-.06.37-.17.65-.2.45-.05.75.16.84.57.24,1.11.02,1.6-.14,1.96-.03.07-.06.13-.08.19l-.02.05c-.05.13-.09.25-.12.35.12-.03.22.01.27.03.14.06.25.19.29.35,0,.03.01.05.02.08,0,.01,0,.03,0,.04-.03,1.11.01,2.12.1,2.34.14.35.35.65.94.52.57-.12.78-.33.87-.88.07-.42.21-1.6.23-1.86-.02-.5.25-.61.4-.65-.02-.03-.04-.06-.07-.09Z"/></svg>