<?xml version="1.0" encoding="UTF-8"?>
<svg id="Layer_2" data-name="Layer 2" xmlns="http://www.w3.org/2000/svg" viewBox="0 0 16.5 16.5">
  <path d="M5.24,4.8c.14.05.27.13.33.27.01.03.06.17.06.2v2.91l1.6-.9c.74-.33,1.49-.27,2.2.1.47.25.92.56,1.4.8v-2.91s.03-.13.04-.16c.06-.16.2-.24.35-.31h.24s.1.04.15.06c.73.38,1.43.85,2.13,1.27.11.13.19.28.2.44-.06.96.07,2,0,2.94-.02.3-.21.6-.44.78-.66.36-1.3.9-1.95,1.24-.23.12-.49.18-.76.16-.75-.06-1.42-.97-2.06-1.3-.31-.16-.74-.15-1.04.02-.91.53-1.62,1.76-2.83,1.09-.69-.38-1.38-.9-2.04-1.33-.16-.17-.25-.37-.31-.6v-3.06c.06-.2.15-.37.33-.48l2.16-1.24h.24Z" fill="#3597d3"/>
  <g>
    <rect x="1" y="1" width="14.5" height="14.5" rx="1.88" ry="1.88" fill="none" stroke="#3597d3" stroke-miterlimit="10" stroke-width=".75"/>
    <path d="M5.4,15.5h-.79c-.6,0-1.09-.49-1.09-1.09h0c0-.76-.62-1.37-1.37-1.37h-.05c-.6,0-1.09-.49-1.09-1.09v-.49,2.13c0,1.06.86,1.92,1.92,1.92h2.48Z" fill="#3597d3"/>
  </g>
</svg>