<?xml version="1.0" encoding="UTF-8"?>
<svg id="Layer_2" xmlns="http://www.w3.org/2000/svg" viewBox="0 0 16.5 16.5">
  <defs>
    <style>.cls-1,.cls-2{fill:#3597d3;}.cls-1,.cls-3{stroke:#3597d3;stroke-miterlimit:10;}.cls-3{fill:none;stroke-width:.75px;}</style>
    <symbol id="wso2-logo" viewBox="0 0 652 652">
      <polygon fill="#3597d3" points="433.2,315.7 373.9,315.7 373.9,304.5 425.6,304.5 457.3,234 492.6,319.8 506.7,294.6 540.8,294.6 540.8,305.7 513.7,305.7 491.4,346.3 456.7,262.8" transform="matrix(2.9791676,0,0,2.9791676,-1034.035,-566.8927)"/>
      <path fill="#3597d3" d="M533.31,123.38c-54.23-56.01-122.45-84.01-204.97-84.01h-3.58c-50.64,0-99.8,12.21-143.59,38.43-43.8,26.22-78.65,61.37-105.17,106.65-26.51,45.29-38.43,94.44-38.43,147.17c0,78.65,28.01,147.18,84.01,203.18,56.01,56.01,124.24,84.02,206.46,84.02h0c80.44,0,148.96-28.01,204.97-84.02,56.01-56,84.01-124.23,84.01-204.96,2.09-82.23-25.92-152.24-83.71-206.46Zm-1.79,323.84c-21.15,36.64-49.16,64.64-84.01,85.8-36.65,21.15-75.38,31.58-117.38,31.58h-1.79c-64.65,0-119.17-22.65-164.45-66.44-45.58-45.58-68.22-99.8-68.22-166.24,0-43.79,10.42-84.01,29.79-120.65,21.15-35.16,49.15-64.65,85.8-85.8,36.64-21.16,75.37-31.58,115.59-31.58h1.79c40.22,0,80.43,10.42,115.59,31.58,36.64,21.15,64.65,49.15,85.8,84.01,21.15,35.15,29.79,75.37,29.79,119.17,1.49,43.19-9.24,83.41-28.3,118.57Z" stroke-width="2.98"/>
    </symbol>
  </defs>
  <!-- Rounded rectangle border -->
  <rect class="cls-3" x="1" y="1" width="14.5" height="14.5" rx="1.88" ry="1.88"/>
  <!-- Corner decoration -->
  <path class="cls-1" d="M5.4,15.5h-.79c-.6,0-1.09-.49-1.09-1.09h0c0-.76-.62-1.37-1.37-1.37h-.05c-.6,0-1.09-.49-1.09-1.09v-.49,2.13c0,1.06.86,1.92,1.92,1.92h2.48Z"/>
  <!-- WSO2 Logo -->
  <use href="#wso2-logo" x="2.2" y="2.3" width="12" height="12" fill="#3597d3"/>
</svg>
